PathFileType	4	(X/Y/Z)	Patient4_TMGait_0pt4_01_left_45.trc.trc
DataRate	CameraRate	NumFrames	NumMarkers	Units	OrigDataRate	OrigDataStartFrame	OrigNumFrames
79.545454545455	79.545454545455	5	33	mm	79.545454545455	53	       141
Frame#	Time	Sacral			L.Shoulder			Chest			R.Shoulder			Neck			R.ASIS			L.ASIS			R.Thigh.Superior			R.Thigh.Lateral			R.Thigh.Inferior			R.Patella			L.Thigh.Superior			L.Thigh.Lateral			L.Thigh.Inferior			L.Patella			L.Shank.Superior			L.Shank.Lateral			L.Shank.Inferior			R.Shank.Superior			R.Shank.Lateral			R.Shank.Inferior			R.Heel			R.Midfoot.Superior			R.Midfoot.Lateral			R.Toe			L.Heel			L.Midfoot.Lateral			L.Midfoot.Superior			L.Toe			L.Elbow			L.Wrist			R.Elbow			R.Wrist			
		X1	Y1	Z1	X2	Y2	Z2	X3	Y3	Z3	X4	Y4	Z4	X5	Y5	Z5	X6	Y6	Z6	X7	Y7	Z7	X8	Y8	Z8	X9	Y9	Z9	X10	Y10	Z10	X11	Y11	Z11	X12	Y12	Z12	X13	Y13	Z13	X14	Y14	Z14	X15	Y15	Z15	X16	Y16	Z16	X17	Y17	Z17	X18	Y18	Z18	X19	Y19	Z19	X20	Y20	Z20	X21	Y21	Z21	X22	Y22	Z22	X23	Y23	Z23	X24	Y24	Z24	X25	Y25	Z25	X26	Y26	Z26	X27	Y27	Z27	X28	Y28	Z28	X29	Y29	Z29	X30	Y30	Z30	X31	Y31	Z31	X32	Y32	Z32	X33	Y33	Z33	

53	57.533714285714	916.163954844433	1007.098473881904	453.671406994219	1107.948844478420	1436.556515475918	274.555627709749	1204.345223893000	1367.112567068732	438.424843719778	1115.429532149383	1439.763891576800	610.706454987464	1094.894417920536	1497.996846180260	431.822381612714	1144.130429689873	946.136633638982	574.146736566413	1135.330805229407	963.533793851620	300.196044642170	1222.843156516364	768.723489279544	544.780363879281	1178.884798990097	650.283227002343	618.463508122358	1266.074818960437	606.809111321827	538.396505419336	1279.472599132836	493.517765205298	562.170764056027	1190.025918069078	755.020970689755	332.406490067920	1105.149166626909	636.889132285307	270.315954458939	1188.393237832422	561.531051663338	336.552976334549	1189.778216993229	490.894695824550	345.611830654849	1159.624945486827	417.023841677714	335.749182208080	1066.009744501233	306.149062205839	286.118597442738	1114.461594182395	192.317225205792	354.038896099269	1198.128705629023	423.175630132158	570.919389112117	1074.202391583692	395.017854789377	633.773196783207	1050.824608636257	286.636364837058	586.740059530504	848.941813769512	251.607389740862	563.492081237078	1004.246430246097	162.320433169528	600.104486215233	896.260439840279	179.776306349607	633.964618979518	1046.345505229088	37.542180317543	620.423733482490	982.788533233414	38.727452832162	397.514599169472	1051.591151951039	36.513562695042	312.503283905791	1136.859763892638	97.170520740850	336.039825726314	1263.013731408533	42.565264288013	297.430295289843	1056.327170129317	1097.741141548901	134.850144990749	1207.865946148990	882.003166324521	140.023855176882	1034.369988667377	1108.437796738112	740.435817625996	1100.967063812689	857.121513007244	770.930892677406	
54	57.546285714286	915.271349996276	1008.055627527871	452.558389396480	1109.492153386123	1437.270460790157	274.251330086773	1204.309540771594	1367.600694906769	438.903435083058	1114.170302488445	1440.484666940996	610.521763422314	1095.444047261800	1498.672515963885	431.421825254932	1142.518680906695	947.328495848167	574.518107085218	1135.175254570371	963.925882226764	300.517339612476	1223.328197192371	772.362026631768	544.401828455304	1181.721847759741	653.487209430937	618.727960311709	1269.230591912717	611.247758937447	538.287953486397	1284.727496826599	498.184891544841	562.489825946650	1188.244367514169	754.486625437153	332.724598486196	1102.298571216034	637.122612805218	270.281651995121	1184.508220093209	561.050389293373	336.855851737497	1185.282343544602	490.532987777019	345.855984458891	1155.039070170580	416.943872072527	335.796320922060	1061.247383022290	306.241903951787	286.089629715901	1109.517664677171	192.301332294923	354.031505286491	1204.594987339784	426.605759789899	571.701334398053	1080.688812211534	396.122075732758	633.376451515645	1060.439292184590	286.811681483564	587.167413538316	859.551512088720	244.901525724138	560.976459891027	1017.271878363453	162.982958452334	602.399256902086	908.397925775027	177.210449329182	634.308392645063	1063.402454258594	40.484513511911	627.110904257780	977.682532767833	38.733127588716	397.448516817901	1046.517516166726	36.515634934331	312.440882003918	1131.794091856687	97.152083477114	335.972040253442	1257.948844941316	42.519617141561	297.359178634360	1059.054559405276	1098.505772555200	134.074045797187	1211.816541596945	883.781880277947	141.506071644205	1030.713118191369	1109.059796505631	738.598299491402	1094.196420420934	856.980887520596	769.801223731069	
55	57.558857142857	914.407772242946	1009.099291888831	451.523045430569	1111.078779254401	1438.038844305258	274.112457886069	1204.304004703801	1368.132038870922	439.526492697609	1112.947976489081	1441.263472872935	610.459491153882	1096.028027578304	1499.391413817674	431.164926184151	1140.878942704733	948.535527193822	574.970030854802	1135.049590601178	964.393138177189	300.950770504979	1223.503661920056	775.825580710867	544.402602931134	1183.818349983652	656.567502536416	619.354641997398	1271.739084635027	615.424662943324	538.773958622520	1289.155640918861	502.809887891608	563.424990248156	1186.266689179719	753.969571145679	333.324432164323	1099.323513386034	637.428877423015	270.288328919172	1180.383829301006	560.596668990166	337.262774832455	1180.498750912986	490.206672531614	346.129236681278	1150.221462144533	416.931434362261	335.857112093322	1056.317431116429	306.353384059732	286.067900567037	1104.484960270128	192.324372277191	354.014100810829	1210.618375317954	429.823403154175	573.010200952501	1086.947013556639	396.266688676322	633.378543899671	1070.532688557239	286.012139778121	587.995963773743	871.049748227728	235.959987053437	558.819290535870	1031.464974385767	162.619509358148	605.019354872434	921.710548686346	172.784377751355	634.935692088854	1082.436729277516	43.165927518045	634.030378584589	972.567386450749	38.742763651987	397.388208691174	1041.440604055258	36.516376336644	312.383850806379	1126.724014067184	97.135364619197	335.898340922096	1252.883726791057	42.474811839894	297.285897877823	1061.665764670472	1099.353716215809	133.492645336137	1215.505915659544	885.565456601382	143.155573833834	1027.227350166303	1109.789989085609	737.025848768623	1088.237619621571	857.118763037950	768.614415535925	
56	57.571428571429	913.568702036450	1010.180741221981	450.564251689491	1112.697683771165	1438.815428376894	274.140829967708	1204.334477728660	1368.655940341887	440.282137523803	1111.780702887961	1442.042805861595	610.513017363196	1096.654476938422	1500.110376902122	431.052453781022	1139.214723969947	949.713881966366	575.497437107250	1134.951416394098	964.884859692463	301.485250083212	1223.389165921877	779.033192226209	544.781816392879	1185.189727662981	659.428626520696	620.322165106701	1273.602028321548	619.235462086653	539.820086609478	1292.756791990008	507.292961991072	564.927645497828	1184.131649188867	753.457865748348	334.188730577013	1096.288729053956	637.780251465193	270.341013161684	1176.114303755030	560.160474494196	337.761554460534	1175.533404611490	489.901382886672	346.433612441664	1145.264047182621	416.959479522756	335.940262786770	1051.291708515953	306.476273984531	286.056189562508	1099.400055348379	192.367971267461	353.991578100981	1216.195144730509	432.761823643313	574.797300767576	1093.089128952046	395.439520314803	633.885901337603	1081.094442421251	284.312212848657	589.276153477698	883.521255017228	225.167426460075	557.346540522497	1046.718016919460	161.304593577614	607.964127636969	936.206094552253	166.707455645244	635.998341791257	1103.089809141194	45.467945716520	640.913919567442	967.448011673663	38.756191808909	397.333176774220	1036.363172261072	36.514277681564	312.331979723032	1121.653696984896	97.118744973270	335.822744374591	1247.820767727259	42.430756333330	297.211028805601	1064.161447693511	1100.245049094503	133.081857496168	1218.945057329604	887.320321493157	144.976311352160	1023.911094298846	1110.579002673280	735.732138706677	1083.094046636979	857.467645095615	767.420690336110	
57	57.584000000000	912.750100840398	1011.250607366812	449.686347457641	1114.335237670683	1439.553024562110	274.337763867959	1204.404898320960	1369.122825038787	441.159282004731	1110.683201206787	1442.766809714123	610.677155654748	1097.330513013289	1500.786651040251	431.084987406290	1137.533923380532	950.821971172001	576.104224265997	1134.873797641521	965.349118974922	302.115306295834	1222.994965427386	781.902819473308	545.523864184588	1185.851367046773	661.980489509708	621.591550148367	1274.806177444783	622.579750492334	541.360138684666	1295.525081494042	511.534204828867	566.909735618826	1181.883222000974	752.935466126738	335.283924152010	1093.256733119249	638.144121247863	270.448944829174	1171.798195187218	559.729418605902	338.339254965809	1170.498852119320	489.600569195398	346.774454193590	1140.263736754520	416.998808909795	336.057436401308	1046.244475628966	306.602736650025	286.061206500897	1094.300426027496	192.413314205601	353.971824241430	1221.305142088864	435.366158288406	576.982562444216	1099.217058529509	393.665211237145	634.980704343267	1092.089168893735	281.821534916561	591.031752234491	897.008350693793	212.926483778720	556.842468489683	1062.907514783481	159.156561926498	611.211981274739	951.879282367119	159.241522916988	637.634877041863	1125.017556427626	47.362347990570	647.520181811691	962.329687560218	38.773058539772	397.283152617368	1031.287862490655	36.508527484322	312.285393344425	1116.587415019334	97.100774974754	335.750448353758	1242.762025581882	42.386309334087	297.136067696718	1066.541714539789	1101.135101178096	132.823139512551	1222.144896077957	889.010621046197	146.968750714487	1020.770608318373	1111.370926717765	734.720091555644	1078.755037072620	857.954384227958	766.266918666108	
